<svg width="160" height="40" viewBox="0 0 160 40" fill="none" xmlns="http://www.w3.org/2000/svg">
  <!-- Background circle with brand green -->
  <circle cx="20" cy="20" r="18" fill="#00FF7D"/>
  <!-- G letter in dark -->
  <path d="M20 8C13.373 8 8 13.373 8 20C8 26.627 13.373 32 20 32C23.5 32 26.627 30.5 28.8 28.1V24H20V20H32V28C29.2 31.5 24.9 34 20 34C12.268 34 6 27.732 6 20C6 12.268 12.268 6 20 6C24.9 6 29.2 8.5 32 12L28.8 14.4C26.627 11.5 23.5 10 20 10C14.477 10 10 14.477 10 20C10 25.523 14.477 30 20 30C22.5 30 24.8 29 26.5 27.3V22H22V26H18V18H30V29C27.5 31.8 23.9 33.5 20 33.5C13.1 33.5 7.5 27.9 7.5 21C7.5 14.1 13.1 8.5 20 8.5C24.2 8.5 27.9 10.5 30.2 13.5L31.5 12.5C28.9 9.2 24.7 7 20 7V8Z" fill="#111827"/>
  <!-- Text: Gappy -->
  <text x="45" y="28" font-family="Arial, sans-serif" font-size="20" font-weight="700" fill="#111827">Gappy</text>
</svg>
